# xmcd
#
# Track frame offsets: 
#        14503
#        37076
#        57873
#        79023
#        95648
#        117421
#        131814
#        154150
#        170135
#        188431
#        199561
#        211909
#
# Disc length: 3121 seconds
#
# Revision: 3
# Processed by: cddbd v1.5.2PL0 Copyright (c) Steve Scherf et al.
# Submitted via: ExactAudioCopy v0.99pb5
#
DISCID=b10b700c
DTITLE=Rolf Wikstrom - Allting Forandras {HDCD}
DYEAR=2001
DGENRE=Folk
TTITLE0=Allting Forandras 
TTITLE1=Sofias Sang
TTITLE2=Helgdagskvall I Timmerkojan
TTITLE3=Haderian Hadera
TTITLE4=Vad Fel Det Blev
TTITLE5=Jag Gor Allting For Dig
TTITLE6=Till Min Syster
TTITLE7=Trotta Ogon
TTITLE8=Min Alskling
TTITLE9=Sommarn Ar Slut Nu
TTITLE10=Om Du Gar Nerat Staden
TTITLE11=Alltfor Manga Ganger
EXTD=Produced by Max Lorentz   MNM YEAR: 2001
EXTT0=
EXTT1=
EXTT2=
EXTT3=
EXTT4=
EXTT5=
EXTT6=
EXTT7=
EXTT8=
EXTT9=
EXTT10=
EXTT11=
PLAYORDER=
